<?xml version="1.0" encoding="utf-8"?>
<svg viewBox="0 0 500 174" xmlns="http://www.w3.org/2000/svg">
  <ellipse style="stroke: rgb(0, 0, 0); fill: rgb(255, 217, 0); stroke-width: 0px;" cx="250.249" cy="47.406" rx="27.909" ry="27.909" transform="matrix(1, 0, 0, 1, -1.4210854715202004e-14, 0)">
    <title>sun</title>
  </ellipse>
  <g transform="matrix(0.20689299702644348, 0, 0, 0.20689299702644348, 173.93339797755175, 34.09381917258827)" style="">
    <title>H</title>
    <line stroke-linecap="undefined" stroke-linejoin="undefined" id="svg_1" y2="444.19325" x2="261.99234" y1="155.15" x1="261.99234" stroke-width="60" stroke="#000" fill="none" style="">
      <title>H-left</title>
    </line>
    <line stroke-linecap="undefined" stroke-linejoin="undefined" id="svg_2" y2="444.69325" x2="472.22333" y1="155.65" x1="472.22333" stroke-width="60" stroke="#000" fill="none" style="">
      <title>H-right</title>
    </line>
    <line stroke-linecap="undefined" stroke-linejoin="undefined" id="svg_3" y2="367.8" x2="471.93503" y1="367.8" x1="261.4" fill-opacity="null" stroke-opacity="null" stroke-width="60" stroke="#000" fill="none" style="">
      <title>H-mid</title>
    </line>
  </g>
  <g style="" transform="matrix(1.0651259422302246, 0, 0, 0.601936936378479, -47.39669870431271, 14.419391846945786)">
    <title>T-top</title>
    <rect x="273.694" y="68.839" width="11.729" height="64.917" style="stroke-width: 0px; stroke: rgb(0, 0, 0);">
      <title>T</title>
    </rect>
    <ellipse style="stroke: rgb(0, 0, 0); stroke-width: 0px;" cx="279.558" cy="133.759" rx="5.865" ry="3.085"/>
    <rect x="273.69" y="124.021" width="11.734" height="8.133" style="stroke: rgb(0, 0, 0); stroke-width: 0px; fill: rgb(255, 217, 0);"/>
    <rect x="273.689" y="100.027" width="11.735" height="8.133" style="stroke: rgb(0, 0, 0); stroke-width: 0px; fill: rgb(255, 217, 0);"/>
    <rect x="273.694" y="112.061" width="11.729" height="8.133" style="stroke: rgb(0, 0, 0); stroke-width: 0px; fill: rgb(255, 217, 0);"/>
    <polygon style="stroke-linejoin: round; stroke-linecap: round;" points="241.445 52.589 317.147 52.589 306.342 71.902 252.26 71.589"/>
  </g>
  <text style="font-family: Futura; font-size: 78.1px; font-weight: 500; letter-spacing: 0.5px; stroke-width: 11px; white-space: pre;" x="35.335" y="126.086" transform="matrix(1, 0, 0, 1, -1.4210854715202004e-14, 0)">GRA</text>
  <text style="font-family: Futura; font-size: 78.1px; font-weight: 500; letter-spacing: 0.5px; stroke-width: 11px; white-space: pre;" x="290.658" y="126.195" transform="matrix(1, 0, 0, 1, -1.4210854715202004e-14, 0)">EON</text>
</svg>